<svg xmlns="http://www.w3.org/2000/svg" xml:space="preserve" width="100" height="100" viewBox="0 0 32 32" fill="currentColor">
  <g stroke="#000" stroke-width=".03">
    <path stroke-width=".036370425" d="m16.86 12.21 3.97.02c.33.16.66.31.94.51.28.2.5.46.57.8.07.34-.03.76-.12 1.18l-.93.1c-.2-.08-.39-.17-.6-.24-.2-.07-.43-.13-.65-.18.35.49.7.98.98 1.33.27.34.47.55.66.76.38-.05.75-.1 1.08-.22.33-.11.61-.29.9-.72.27-.43.55-1.1.45-1.7-.1-.6-.56-1.12-1.02-1.64l1.2-.04c.12.02.24.03.34.1.1.08.18.22.33.31.15.1.36.15.6.07.22-.1.46-.32.7-.55l1.03-.78-1.23-1.27a2.04 2.04 0 0 0-.5-.19.97.97 0 0 0-.54.03c-.15.07-.24.2-.33.33-.12.08-.24.17-.51.2-.27.04-.7.04-1.11.03.02-.13.04-.26.13-.38.1-.11.26-.22.47-.46.2-.25.44-.62.48-1.08.03-.46-.14-1-.54-1.45a2.76 2.76 0 0 0-1.5-.9 1 1 0 0 0-.97.45c-.2.27-.27.56-.44.83-.17.27-.44.52-.72.77.29.02.57.03.8-.06.23-.09.4-.27.61-.34.21-.08.45-.04.7 0 .1.1.19.2.23.39.05.2.05.49.05.78-.18.32-.37.63-.64.87-.28.24-.65.41-1.03.58l-3.83-.03-1.73.9Z"/>
    <path stroke-width=".036370425" d="m15.13 10.42-3.83.03c-.38-.17-.75-.34-1.03-.58-.27-.24-.46-.55-.64-.87 0-.3 0-.59.05-.78.04-.2.14-.29.23-.38.25-.05.49-.09.7-.01.2.07.38.25.6.34.24.09.52.08.8.06-.27-.25-.54-.5-.71-.77-.17-.27-.25-.56-.44-.83a1 1 0 0 0-.98-.44c-.47.06-1.1.43-1.49.89-.4.45-.57 1-.54 1.45.04.46.28.83.48 1.08.21.24.38.35.47.46.1.12.11.25.13.38-.42 0-.84.01-1.1-.03-.28-.03-.4-.12-.52-.2-.09-.13-.18-.26-.33-.33a.97.97 0 0 0-.54-.03c-.18.04-.34.11-.5.19l-1.23 1.27 1.02.78c.25.23.49.46.72.55.23.08.44.03.59-.07.15-.09.23-.23.33-.3.1-.08.22-.1.34-.11l1.2.04c-.46.52-.93 1.03-1.02 1.63-.1.6.18 1.28.46 1.71.28.43.56.6.9.72.32.12.7.17 1.07.22.2-.2.39-.42.66-.76.28-.35.63-.84.98-1.33-.22.05-.44.1-.65.18-.21.07-.4.16-.6.24l-.93-.1c-.1-.42-.19-.84-.12-1.18.06-.34.3-.6.57-.8.28-.2.6-.35.94-.5l3.97-.03 1.72-.9z"/>
  </g>
  <g stroke="#000" stroke-width=".03">
    <path stroke-width=".036370425" d="m15.14 12.21-.02 1.14c-.19.4-.38.82-.63 1.14-.25.33-.58.56-.9.8.43 2.7.86 5.4 1.25 8.1.4 2.72.74 5.85 1.16 8.58.42-2.73.77-5.86 1.16-8.58.39-2.7.82-5.4 1.25-8.1a4.28 4.28 0 0 1-.9-.8c-.25-.32-.44-.73-.63-1.14l-.02-1.14-.86-1.8z"/>
    <path stroke-width=".036370425" d="m16 .01-.33.34-1.63 1.71c-.47.68-.94 1.35-1.18 1.9-.25.55-.27.97-.28 1.34-.02.38-.03.7.07.96a1 1 0 0 0 .56.52c.22.1.45.08.63.02s.32-.17.43-.28c.12-.12.21-.25.3-.38l-.38-.06a.78.78 0 0 1-.34-.18.36.36 0 0 1-.1-.33c.03-.14.11-.3.27-.38.15-.08.23-.08.58-.07.34 0 .33 0 .46.3.12.3.1.53.09 1.41-.02.89-.02 2.24-.02 3.6l.87 1.8.87-1.8s0-2.71-.02-3.6c-.01-.88-.03-1.12.1-1.41.12-.3.1-.3.45-.3s.43-.01.58.07c.16.07.24.24.27.38a.36.36 0 0 1-.1.33.78.78 0 0 1-.34.18l-.39.06.3.38c.12.11.26.22.44.28a1 1 0 0 0 1.19-.54c.1-.26.09-.58.07-.96-.01-.37-.03-.8-.28-1.34-.24-.55-.71-1.22-1.18-1.9L16.33.36 16 0"/>
  </g>
</svg>